<svg xmlns="http://www.w3.org/2000/svg" viewBox="0 0 342.91 484.56"><defs><style>.cls-1{fill:#41040f;}.cls-2{fill:#fec200;}.cls-3{fill:#cb7979;}.cls-4{fill:#fec201;}</style></defs><g id="Capa_2" data-name="Capa 2"><g id="Capa_1-2" data-name="Capa 1"><path class="cls-1" d="M104.67,67.5c3.71-7,7.19-14.14,11.61-20.76A152.44,152.44,0,0,1,164,.79a3.57,3.57,0,0,1,4.4-.06,150.49,150.49,0,0,1,58.87,66.09c.29.63.63,1.23.94,1.84.33.9.63,1.82,1,2.7a147.1,147.1,0,0,1,9.56,79.34A146.2,146.2,0,0,1,200.13,230a6.48,6.48,0,0,0-1.91,4.86c.06,22.53,0,45.06,0,67.59,0,3.95.07,7.89.11,11.83,0,.61-.1,1.22-.1,1.83v96c0,.79.1,1.57.14,2.36q0,18.68-.09,37.36c-.07,16.54-11,29.51-27.29,32.37-16.95,3-34.43-10-36.39-27-1.08-9.44-.23-18.92-.5-28.38,0-.79-.06-1.57-.09-2.36,0-1.05.14-2.1.14-3.14q0-61.11,0-122.2c0-.88-.07-1.75-.1-2.62,0-.35.08-.7.08-1.05q0-31.71,0-63.41a4.64,4.64,0,0,0-1.47-3.45Q95.21,190.3,92.16,135.36a142.58,142.58,0,0,1,7-52.84C100.88,77.46,102.85,72.5,104.67,67.5Z"/><path class="cls-2" d="M198.37,314.26c0-3.94-.11-7.88-.11-11.83,0-22.53,0-45.06,0-67.59a6.48,6.48,0,0,1,1.91-4.86,146.2,146.2,0,0,0,38.62-79.28,147.1,147.1,0,0,0-9.56-79.34c-.36-.88-.66-1.8-1-2.7a149.52,149.52,0,0,1,70.29-32.19A180,180,0,0,1,321,34.34a2.92,2.92,0,0,1,3.1,1.76,148.42,148.42,0,0,1,18.05,57.4c3.85,39.38-6.35,74.85-30.28,106.23-19.12,25.07-44.1,42-74.18,51.32a7.7,7.7,0,0,0-4.89,3.82c-8.23,14.47-16.6,28.85-24.91,43.27-.43.75-.75,1.56-1.13,2.34a6.88,6.88,0,0,0-1.59,2.36Q201.75,308.54,198.37,314.26Z"/><path class="cls-3" d="M104.67,67.5c-1.82,5-3.79,10-5.46,15a142.58,142.58,0,0,0-7,52.84q3.06,54.82,40.59,95.12a4.64,4.64,0,0,1,1.47,3.45q-.08,31.71,0,63.41c0,.35-.05.7-.08,1.05l-1.5,1.72c-7.6-13.21-15.24-26.4-22.78-39.65a6.22,6.22,0,0,0-4-3,145.23,145.23,0,0,1-61.86-36.9C21.18,197.75,7,170.4,1.93,138.49c-5.36-33.78.52-65.64,16.8-95.65.77-1.44,1.49-2.29,3.34-2.23,29.79.94,57.16,9.35,81.84,26.2A8.3,8.3,0,0,1,104.67,67.5Z"/><path class="cls-3" d="M198.37,314.26q3.39-5.72,6.77-11.42a6.88,6.88,0,0,1,1.59-2.36c4.65,7.93,9.33,15.83,13.93,23.79q26.29,45.51,52.57,91c7.72,13.35,6.67,27.33-3.09,38.77-13.2,15.47-39.6,13.82-50.41-3.46-7.16-11.43-13.63-23.29-20.42-34.95-.26-.44-.6-.84-.9-1.26,0-.79-.14-1.57-.14-2.36v-96C198.27,315.48,198.34,314.87,198.37,314.26Z"/><path class="cls-4" d="M132.6,300.11l1.5-1.72c0,.87.1,1.74.1,2.62q0,61.1,0,122.2c0,1-.09,2.09-.14,3.14-3.11,5.26-6.19,10.55-9.34,15.79-6.44,10.71-16,16.3-28.42,16.3-23.44,0-39.14-25.44-28.17-46.13,8.65-16.3,18.28-32.08,27.5-48.08Q114.1,332.16,132.6,300.11Z"/></g></g></svg>