<?xml version="1.0" encoding="UTF-8"?><svg xmlns="http://www.w3.org/2000/svg" viewBox="0 0 426.42 80.61"><defs><style>.d{fill:#1d1d1b;}</style></defs><g id="a"/><g id="b"><g id="c"><g><path class="d" d="M41.92,47.77l-5.42-5.91c3.05-.12,5.57-.89,7.54-2.33,1.97-1.43,3.44-3.25,4.42-5.46,.97-2.21,1.46-4.56,1.46-7.07,0-2.86-.7-5.32-2.08-7.38-1.39-2.06-3.35-3.64-5.88-4.74-2.53-1.1-5.57-1.66-9.12-1.66-2.33,0-4.7,.36-7.08,1.07-2.39,.72-4.58,1.82-6.58,3.31-2,1.49-3.61,3.37-4.83,5.64-1.22,2.27-1.83,4.98-1.83,8.14,0,1.61,.17,3.12,.5,4.52,.33,1.4,.92,3.03,1.75,4.88-.72,.78-1.57,1.34-2.54,1.7-.97,.36-1.9,.54-2.79,.54-2,0-3.71-.51-5.12-1.52-1.42-1.01-2.49-2.38-3.21-4.12-.72-1.73-1.08-3.64-1.08-5.73,0-3.7,.92-7.01,2.75-9.93,1.83-2.92,4.38-5.41,7.63-7.47,3.25-2.06,6.93-3.64,11.04-4.74,4.11-1.1,8.44-1.65,13-1.65,6.72,0,12.22,.84,16.5,2.5,4.28,1.67,7.43,3.91,9.46,6.71,2.03,2.8,3.04,5.96,3.04,9.48,0,2.8-.58,5.4-1.75,7.78-1.17,2.39-2.78,4.49-4.83,6.31-2.06,1.82-4.36,3.34-6.92,4.56-2.56,1.22-5.22,2.07-8,2.55Zm-23,22.99c-1.5,0-2.92-.28-4.25-.85-1.33-.57-2.2-1.39-2.58-2.46,.78-.48,1.42-1.1,1.92-1.88,.5-.77,.92-1.79,1.25-3.04,.33-1.25,.64-2.74,.92-4.47l5.17-28.36c.5-2.68,1.14-4.91,1.92-6.67,.78-1.76,1.88-3.09,3.29-3.98s3.32-1.34,5.71-1.34c1.83,0,3.4,.37,4.71,1.12,1.3,.75,2.04,1.72,2.21,2.91-.89,.42-1.58,1.03-2.08,1.83s-.88,1.79-1.12,2.95-.54,2.58-.88,4.25l-5.33,28.81c-.45,2.51-1.1,4.58-1.96,6.22-.86,1.64-2,2.88-3.42,3.71-1.42,.83-3.24,1.25-5.46,1.25Zm38.17,9.84c-2.5,0-4.58-.57-6.25-1.7-1.67-1.13-3.14-3.01-4.42-5.64-.61-1.25-1.21-2.8-1.79-4.65-.58-1.85-1.18-3.88-1.79-6.08-.61-2.21-1.25-4.5-1.92-6.89-.67-2.38-1.36-4.74-2.08-7.07-.72-2.33-1.5-4.56-2.33-6.71l10.75,4.03c1.22,1.13,2.38,2.76,3.46,4.88,1.08,2.12,2.18,4.42,3.29,6.89,1.11,2.48,2.26,4.88,3.46,7.2,1.19,2.33,2.49,4.32,3.88,5.99,1.39,1.67,2.94,2.71,4.67,3.13-.56,1.97-1.61,3.56-3.17,4.79-1.56,1.22-3.47,1.83-5.75,1.83Z"/><path class="d" d="M80.92,70.95c-3.28,0-6.17-.66-8.67-1.97-2.5-1.31-4.45-3.31-5.83-5.99-1.39-2.68-2.08-6.11-2.08-10.29,0-3.82,.51-7.56,1.54-11.23,1.03-3.67,2.58-6.99,4.67-9.98,2.08-2.98,4.74-5.35,7.96-7.11,3.22-1.76,7.05-2.64,11.5-2.64,2.28,0,4.39,.31,6.33,.94,1.94,.63,3.5,1.73,4.67,3.31,1.17,1.58,1.75,3.77,1.75,6.58,0,3.16-.86,5.86-2.58,8.1-1.72,2.24-4.15,3.98-7.29,5.23-3.14,1.25-6.88,1.97-11.21,2.15h-2.21c-.81,0-1.51-.03-2.12-.09-.06,.78-.11,1.57-.17,2.37-.06,.81-.08,1.54-.08,2.19,0,2.86,.53,5.09,1.58,6.67,1.05,1.58,2.94,2.37,5.67,2.37,2.28,0,4.43-.55,6.46-1.66,2.03-1.1,3.57-2.67,4.62-4.7,.78,.36,1.32,.9,1.62,1.61,.3,.72,.46,1.49,.46,2.33,0,2.21-.72,4.21-2.17,5.99-1.45,1.79-3.42,3.21-5.92,4.25-2.5,1.04-5.33,1.57-8.5,1.57Zm-3.08-27.11c1.94,0,3.75-.27,5.42-.8,1.67-.54,3.15-1.33,4.46-2.37,1.3-1.04,2.32-2.34,3.04-3.89,.72-1.55,1.08-3.28,1.08-5.19-.06-1.61-.38-2.85-.96-3.71-.58-.86-1.51-1.3-2.79-1.3s-2.39,.43-3.5,1.3c-1.11,.87-2.1,2.07-2.96,3.62-.86,1.55-1.61,3.37-2.25,5.46-.64,2.09-1.15,4.38-1.54,6.89Z"/><path class="d" d="M120.5,70.95c-5.06,0-8.97-1.49-11.75-4.47-2.78-2.98-4.17-7.6-4.17-13.87,0-4.05,.57-7.93,1.71-11.63,1.14-3.7,2.8-6.99,5-9.89,2.19-2.89,4.86-5.17,8-6.84,3.14-1.67,6.74-2.5,10.79-2.5,2.44,0,4.61,.33,6.5,.98,1.89,.66,3.39,1.67,4.5,3.04,1.11,1.37,1.67,3.22,1.67,5.55,0,2.92-.86,5.04-2.58,6.35-1.72,1.31-3.7,1.97-5.92,1.97-.5,0-1.11-.06-1.83-.18-.72-.12-1.31-.39-1.75-.81,.39-1.01,.71-2.25,.96-3.71,.25-1.46,.38-2.73,.38-3.8,0-1.25-.24-2.25-.71-3-.47-.75-1.29-1.12-2.46-1.12-1.5,0-2.86,.6-4.08,1.79-1.22,1.19-2.29,2.74-3.21,4.65-.92,1.91-1.68,4-2.29,6.26-.61,2.27-1.08,4.5-1.42,6.71s-.5,4.12-.5,5.72c0,2.75,.51,5,1.54,6.75,1.03,1.76,2.85,2.64,5.46,2.64,2.39,0,4.51-.72,6.38-2.15,1.86-1.43,3.18-3.34,3.96-5.73,1.11,.48,1.9,1.13,2.38,1.97,.47,.84,.71,1.85,.71,3.04,0,2.45-.79,4.59-2.38,6.44-1.58,1.85-3.68,3.28-6.29,4.29-2.61,1.01-5.47,1.52-8.58,1.52Z"/><path class="d" d="M159.75,70.95c-3.28,0-6.17-.66-8.67-1.97-2.5-1.31-4.45-3.31-5.83-5.99-1.39-2.68-2.08-6.11-2.08-10.29,0-3.82,.51-7.56,1.54-11.23,1.03-3.67,2.58-6.99,4.67-9.98,2.08-2.98,4.74-5.35,7.96-7.11,3.22-1.76,7.05-2.64,11.5-2.64,2.28,0,4.39,.31,6.33,.94,1.94,.63,3.5,1.73,4.67,3.31,1.17,1.58,1.75,3.77,1.75,6.58,0,3.16-.86,5.86-2.58,8.1-1.72,2.24-4.15,3.98-7.29,5.23-3.14,1.25-6.88,1.97-11.21,2.15h-2.21c-.81,0-1.51-.03-2.12-.09-.06,.78-.11,1.57-.17,2.37-.06,.81-.08,1.54-.08,2.19,0,2.86,.53,5.09,1.58,6.67,1.05,1.58,2.94,2.37,5.67,2.37,2.28,0,4.43-.55,6.46-1.66,2.03-1.1,3.57-2.67,4.62-4.7,.78,.36,1.32,.9,1.62,1.61,.3,.72,.46,1.49,.46,2.33,0,2.21-.72,4.21-2.17,5.99-1.45,1.79-3.42,3.21-5.92,4.25-2.5,1.04-5.33,1.57-8.5,1.57Zm-3.08-27.11c1.94,0,3.75-.27,5.42-.8,1.67-.54,3.15-1.33,4.46-2.37,1.3-1.04,2.32-2.34,3.04-3.89,.72-1.55,1.08-3.28,1.08-5.19-.06-1.61-.38-2.85-.96-3.71-.58-.86-1.51-1.3-2.79-1.3s-2.39,.43-3.5,1.3c-1.11,.87-2.1,2.07-2.96,3.62-.86,1.55-1.61,3.37-2.25,5.46-.64,2.09-1.15,4.38-1.54,6.89Z"/><path class="d" d="M193.42,70.95c-2.17,0-4.03-.66-5.58-1.97-1.56-1.31-2.33-3.22-2.33-5.73,0-1.19,.14-2.79,.42-4.79,.28-2,.61-4.13,1-6.4,.39-2.27,.79-4.43,1.21-6.49,.42-2.06,.74-3.71,.96-4.97l2.42-13.06h-5.42l.33-2.68c3-1.07,5.97-2.52,8.92-4.34,2.94-1.82,5.72-3.92,8.33-6.31h3.25l-1.83,9.3h6.5l-.75,4.03h-6.5l-5.25,28.9c-.17,.84-.31,1.63-.42,2.37-.11,.75-.17,1.48-.17,2.19-.06,1.91,.32,3.16,1.12,3.76,.8,.6,2.04,.72,3.71,.36-.67,1.55-1.51,2.74-2.54,3.58-1.03,.83-2.18,1.42-3.46,1.74-1.28,.33-2.58,.49-3.92,.49Z"/><path class="d" d="M222.67,70.95c-3,0-5.45-.73-7.33-2.19-1.89-1.46-3.28-3.49-4.17-6.08-.89-2.59-1.33-5.59-1.33-8.99,0-4.47,.6-8.65,1.79-12.52,1.19-3.88,2.9-7.28,5.12-10.2,2.22-2.92,4.81-5.19,7.75-6.8,2.94-1.61,6.14-2.42,9.58-2.42,2.83,0,5.75,.6,8.75,1.79l10.75-1.43-6.33,35.7c-.06,.54-.14,1.16-.25,1.88-.11,.72-.17,1.34-.17,1.88,0,1.01,.26,1.89,.79,2.64,.53,.75,1.35,1.18,2.46,1.3-.33,1.25-.95,2.28-1.83,3.09-.89,.8-1.9,1.4-3.04,1.79-1.14,.39-2.32,.58-3.54,.58-1.67,0-3.15-.42-4.46-1.25-1.31-.83-2.15-2.12-2.54-3.85-1.45,1.55-3.18,2.79-5.21,3.71-2.03,.92-4.29,1.39-6.79,1.39Zm4.42-5.55c1.78,0,3.24-.67,4.38-2.01,1.14-1.34,2.03-3.01,2.67-5.01,.64-2,1.12-3.89,1.46-5.68l3.92-23.44c-.95-.72-1.89-1.25-2.83-1.61-.95-.36-1.83-.54-2.67-.54-1.61,0-3.06,.64-4.33,1.92-1.28,1.28-2.38,3-3.29,5.14-.92,2.15-1.67,4.53-2.25,7.16-.58,2.63-1,5.32-1.25,8.1s-.38,5.38-.38,7.83c0,2.15,.3,4.04,.92,5.68,.61,1.64,1.83,2.46,3.67,2.46Zm5.25-48.76l-1.58-3.94L249.42,0c1,.42,1.72,1.15,2.17,2.19,.44,1.04,.67,2.16,.67,3.35,0,1.85-.49,3.34-1.46,4.47-.97,1.13-2.22,2.01-3.75,2.64-1.53,.63-3.15,1.18-4.88,1.66l-9.83,2.33Z"/><path class="d" d="M270.75,71.12c-2,0-3.97-.18-5.92-.54-1.95-.36-3.72-.93-5.33-1.7-1.61-.77-2.88-1.79-3.79-3.04-.92-1.25-1.38-2.74-1.38-4.47s.4-3.12,1.21-4.16c.8-1.04,1.83-1.83,3.08-2.37s2.6-.81,4.04-.81c.89,0,1.78,.11,2.67,.31,.89,.21,1.64,.58,2.25,1.12-.28,.96-.5,1.85-.67,2.68-.17,.84-.25,1.82-.25,2.95,.05,1.49,.58,2.7,1.58,3.62,1,.93,2.33,1.39,4,1.39,1.83,0,3.35-.49,4.54-1.48,1.19-.98,1.79-2.28,1.79-3.89s-.51-2.95-1.54-4.2c-1.03-1.25-2.32-2.46-3.88-3.62-1.56-1.16-3.14-2.34-4.75-3.54-1.56-1.13-3.03-2.36-4.42-3.67-1.39-1.31-2.5-2.79-3.33-4.43-.83-1.64-1.25-3.53-1.25-5.68,0-2.33,.58-4.35,1.75-6.08,1.17-1.73,2.71-3.18,4.62-4.34,1.92-1.16,4.05-2.03,6.42-2.59,2.36-.57,4.74-.85,7.13-.85s4.53,.3,6.75,.89c2.22,.6,4.05,1.58,5.5,2.95,1.44,1.37,2.14,3.25,2.08,5.64,0,2.45-.74,4.29-2.21,5.55-1.47,1.25-3.24,1.88-5.29,1.88-.83,0-1.72-.12-2.67-.36-.95-.24-1.78-.6-2.5-1.07,.33-.77,.58-1.58,.75-2.42,.17-.83,.28-1.67,.33-2.51,0-1.73-.45-3.12-1.33-4.16-.89-1.04-2.2-1.57-3.92-1.57-1.5,0-2.79,.45-3.88,1.34-1.08,.89-1.65,2.18-1.71,3.85,0,1.31,.39,2.55,1.17,3.71,.78,1.16,1.82,2.28,3.12,3.35,1.3,1.07,2.68,2.12,4.12,3.13,1.83,1.25,3.57,2.55,5.21,3.89s2.97,2.85,4,4.52c1.03,1.67,1.51,3.7,1.46,6.08,0,2.92-.85,5.47-2.54,7.65-1.7,2.18-4.01,3.88-6.96,5.1-2.95,1.22-6.31,1.86-10.08,1.92Z"/><path class="d" d="M306,70.95c-2.17,0-4.03-.66-5.58-1.97-1.56-1.31-2.33-3.22-2.33-5.73,0-1.19,.14-2.79,.42-4.79,.28-2,.61-4.13,1-6.4,.39-2.27,.79-4.43,1.21-6.49,.42-2.06,.74-3.71,.96-4.97l2.42-13.06h-5.42l.33-2.68c3-1.07,5.97-2.52,8.92-4.34,2.94-1.82,5.72-3.92,8.33-6.31h3.25l-1.83,9.3h6.5l-.75,4.03h-6.5l-5.25,28.9c-.17,.84-.31,1.63-.42,2.37-.11,.75-.17,1.48-.17,2.19-.06,1.91,.32,3.16,1.12,3.76,.81,.6,2.04,.72,3.71,.36-.67,1.55-1.51,2.74-2.54,3.58-1.03,.83-2.18,1.42-3.46,1.74-1.28,.33-2.58,.49-3.92,.49Z"/><path class="d" d="M330.5,70.95c-2.28,0-4.12-.66-5.54-1.97-1.42-1.31-2.12-3.22-2.12-5.73,0-.9,.08-2.06,.25-3.49,.17-1.43,.39-2.94,.67-4.52,.28-1.58,.55-3.09,.83-4.52,.28-1.43,.5-2.59,.67-3.49l4.33-23.71,13.17-1.43-6.58,35.7c-.06,.48-.14,1.09-.25,1.83-.11,.75-.17,1.39-.17,1.92,0,1.01,.26,1.89,.79,2.64,.53,.75,1.35,1.18,2.46,1.3-.5,1.85-1.58,3.22-3.25,4.12s-3.42,1.34-5.25,1.34Zm7.92-54.93c-2.17,0-3.97-.54-5.42-1.61-1.45-1.07-2.17-2.62-2.17-4.65,0-2.15,.76-3.77,2.29-4.88,1.53-1.1,3.38-1.66,5.54-1.66s3.94,.54,5.33,1.61,2.08,2.65,2.08,4.74-.74,3.76-2.21,4.83c-1.47,1.07-3.29,1.61-5.46,1.61Z"/><path class="d" d="M362.17,70.95c-5.06,0-8.97-1.49-11.75-4.47-2.78-2.98-4.17-7.6-4.17-13.87,0-4.05,.57-7.93,1.71-11.63,1.14-3.7,2.8-6.99,5-9.89,2.19-2.89,4.86-5.17,8-6.84,3.14-1.67,6.74-2.5,10.79-2.5,2.44,0,4.61,.33,6.5,.98,1.89,.66,3.39,1.67,4.5,3.04,1.11,1.37,1.67,3.22,1.67,5.55,0,2.92-.86,5.04-2.58,6.35-1.72,1.31-3.7,1.97-5.92,1.97-.5,0-1.11-.06-1.83-.18-.72-.12-1.31-.39-1.75-.81,.39-1.01,.71-2.25,.96-3.71,.25-1.46,.38-2.73,.38-3.8,0-1.25-.24-2.25-.71-3-.47-.75-1.29-1.12-2.46-1.12-1.5,0-2.86,.6-4.08,1.79-1.22,1.19-2.29,2.74-3.21,4.65-.92,1.91-1.68,4-2.29,6.26-.61,2.27-1.08,4.5-1.42,6.71s-.5,4.12-.5,5.72c0,2.75,.51,5,1.54,6.75,1.03,1.76,2.85,2.64,5.46,2.64,2.39,0,4.51-.72,6.38-2.15s3.18-3.34,3.96-5.73c1.11,.48,1.9,1.13,2.38,1.97,.47,.84,.71,1.85,.71,3.04,0,2.45-.79,4.59-2.38,6.44-1.58,1.85-3.68,3.28-6.29,4.29s-5.47,1.52-8.58,1.52Z"/><path class="d" d="M401.42,70.95c-2.78,0-5.2-.43-7.25-1.3-2.06-.86-3.75-2.07-5.08-3.62-1.33-1.55-2.32-3.38-2.96-5.5-.64-2.12-.96-4.4-.96-6.84,0-4.23,.53-8.28,1.58-12.12,1.05-3.85,2.63-7.26,4.71-10.24,2.08-2.98,4.69-5.32,7.83-7.02,3.14-1.7,6.79-2.55,10.96-2.55,2.89,0,5.35,.43,7.38,1.3,2.03,.87,3.69,2.07,5,3.62,1.3,1.55,2.26,3.37,2.88,5.46,.61,2.09,.92,4.33,.92,6.71,0,4.24-.53,8.27-1.58,12.12-1.06,3.85-2.62,7.28-4.71,10.29-2.08,3.01-4.68,5.38-7.79,7.11-3.11,1.73-6.75,2.59-10.92,2.59Zm1.42-5.37c1.5,0,2.85-.67,4.04-2.01,1.19-1.34,2.22-3.13,3.08-5.37,.86-2.24,1.57-4.71,2.12-7.43,.55-2.71,.97-5.47,1.25-8.28,.28-2.8,.42-5.4,.42-7.78s-.35-4.1-1.04-5.5c-.7-1.4-1.99-2.1-3.88-2.1-1.5,0-2.86,.67-4.08,2.01-1.22,1.34-2.26,3.12-3.12,5.32-.86,2.21-1.57,4.67-2.12,7.38-.56,2.71-.97,5.47-1.25,8.28-.28,2.8-.42,5.43-.42,7.87,0,2.21,.36,4.03,1.08,5.46,.72,1.43,2.03,2.15,3.92,2.15Z"/></g></g></g></svg>